<svg xmlns="http://www.w3.org/2000/svg" xmlns:xlink="http://www.w3.org/1999/xlink">
  <defs>
    <linearGradient id="a" x1="11.31" x2="5.91" y1="17.54" y2=".12" gradientUnits="userSpaceOnUse">
      <stop offset="0" stop-color="#ffda78"/>
      <stop offset=".19" stop-color="#f2683c"/>
      <stop offset=".63" stop-color="#cb2f97"/>
      <stop offset="1" stop-color="#4b62d3"/>
    </linearGradient>
  </defs>
  <symbol id="facebook">
    <path fill="#3d5a98"
          d="M7.472 8.804H5.318v8.73H2.045v-8.73H.494v-3.07h1.55V3.76c0-1.426.604-3.64 3.296-3.64h2.412v2.975H5.986c-.28 0-.69.167-.69.832v1.808H7.73z"/>
  </symbol>
  <symbol id="instagram">
    <path fill="url(#a)"
          d="M13.074 8.828a4.455 4.455 0 0 1-4.463 4.465 4.455 4.455 0 0 1-4.464-4.465 4.456 4.456 0 0 1 4.464-4.467 4.476 4.476 0 0 1 4.463 4.467zm-1.894 0a2.576 2.576 0 0 0-2.57-2.57 2.577 2.577 0 0 0-2.568 2.57 2.578 2.578 0 0 0 2.569 2.57 2.578 2.578 0 0 0 2.569-2.57zm6.133-4.305v8.61a4.407 4.407 0 0 1-4.4 4.402H4.309c-2.408 0-4.4-1.96-4.4-4.402v-8.61A4.407 4.407 0 0 1 4.309.12h8.606a4.407 4.407 0 0 1 4.399 4.402zm-1.927 0a2.474 2.474 0 0 0-2.472-2.474H4.308a2.475 2.475 0 0 0-2.473 2.474v8.61a2.474 2.474 0 0 0 2.473 2.474h8.606a2.474 2.474 0 0 0 2.472-2.474zm-2.183-1.35a1.06 1.06 0 1 1 0 2.12 1.06 1.06 0 0 1 0-2.12z"/>
  </symbol>
  <symbol id="twitter">
    <path fill="#41abe1"
          d="M17.126 2.267a6.62 6.62 0 0 1-2.054.574A3.684 3.684 0 0 0 16.645.819c-.693.409-1.466.737-2.266.9A3.498 3.498 0 0 0 11.765.574c-1.973 0-3.573 1.639-3.573 3.661 0 .3.026.574.08.847a10.115 10.115 0 0 1-7.36-3.825 3.6 3.6 0 0 0-.48 1.83c0 1.285.64 2.405 1.6 3.061a3.655 3.655 0 0 1-1.627-.465v.055c0 1.777 1.226 3.252 2.88 3.58a3.522 3.522 0 0 1-.934.137 4.91 4.91 0 0 1-.666-.055c.453 1.449 1.786 2.514 3.333 2.541a7.084 7.084 0 0 1-4.454 1.558c-.293 0-.56-.028-.853-.054a9.949 9.949 0 0 0 5.494 1.639c6.587 0 10.187-5.575 10.187-10.44V4.18a8.42 8.42 0 0 0 1.734-1.912z"/>
  </symbol>
  <symbol id="vk">
    <path fill="#193694"
          d="M18.07 9.758c-.048-.085-.34-.77-1.746-2.177-1.473-1.473-1.275-1.234.499-3.78 1.08-1.553 1.511-2.5 1.376-2.906-.128-.386-.923-.284-.923-.284l-2.641.017s-.196-.029-.342.066c-.142.092-.233.305-.233.305s-.419 1.201-.977 2.221c-1.177 2.154-1.648 2.269-1.84 2.135-.447-.312-.335-1.254-.335-1.921 0-2.088.293-2.958-.573-3.184-.288-.074-.499-.124-1.234-.133C8.158.107 7.36.122 6.908.36c-.301.158-.533.512-.391.533.174.024.57.114.78.422.271.397.261 1.29.261 1.29s.156 2.457-.363 2.763c-.357.21-.847-.218-1.896-2.174-.537-1-.944-2.107-.944-2.107S4.277.88 4.138.77C3.968.637 3.73.594 3.73.594L1.22.61S.842.622.704.8c-.123.158-.01.482-.01.482S2.66 6.24 4.887 8.74c2.043 2.293 4.361 2.142 4.361 2.142H10.3s.317-.038.479-.226c.15-.174.144-.498.144-.498s-.021-1.52.634-1.742c.645-.22 1.473 1.467 2.351 2.118.664.492 1.169.383 1.169.383l2.347-.035s1.23-.082.647-1.123z"/>
  </symbol>
  <symbol id="youtube">
    <path fill="#ed1c24"
          d="M17.782 5.966s0 2.706-.357 4.011a2.132 2.132 0 0 1-1.528 1.47c-1.357.343-6.783.343-6.783.343s-5.412 0-6.782-.357a2.132 2.132 0 0 1-1.528-1.47C.447 8.672.447 5.953.447 5.953s0-2.707.357-4.011c.2-.715.8-1.293 1.528-1.485C3.688.114 9.114.114 9.114.114s5.426 0 6.783.357a2.132 2.132 0 0 1 1.528 1.47c.371 1.305.357 4.025.357 4.025zm-5.883-.014l-4.512-2.5v5z"/>
  </symbol>
</svg>
